<?xml version="1.0" standalone="no"?>
<!DOCTYPE svg PUBLIC "-//W3C//DTD SVG 20010904//EN"
 "http://www.w3.org/TR/2001/REC-SVG-20010904/DTD/svg10.dtd">
<svg version="1.0" xmlns="http://www.w3.org/2000/svg"
 width="700.000000pt" height="700.000000pt" viewBox="0 0 700.000000 700.000000"
 preserveAspectRatio="xMidYMid meet">
<metadata>
Created by potrace 1.14, written by Peter Selinger 2001-2017
</metadata>
<g transform="translate(0.000000,700.000000) scale(0.100000,-0.100000)"
fill="#000000" stroke="none">
<path d="M0 3500 l0 -3500 3500 0 3500 0 0 3500 0 3500 -3500 0 -3500 0 0
-3500z m6435 2 c0 -1946 -3 -2933 -10 -2935 -9 -3 -5842 -1 -5855 2 -3 1 -5
1318 -5 2928 0 2285 3 2929 12 2933 7 3 1327 5 2935 5 l2922 -1 1 -2932z"/>
<path d="M3468 5725 c-1 -1 -24 -6 -49 -9 -158 -21 -333 -113 -413 -217 -79
-102 -117 -260 -116 -474 1 -134 2 -162 16 -305 12 -136 9 -428 -5 -488 -11
-43 -39 -88 -146 -231 -238 -319 -251 -341 -340 -581 -31 -85 -63 -171 -70
-190 -8 -19 -17 -46 -20 -60 -7 -27 -21 -59 -79 -181 -44 -96 -56 -164 -41
-246 6 -35 8 -63 4 -63 -15 0 -68 -65 -105 -126 -57 -97 -115 -133 -279 -174
-108 -27 -149 -50 -174 -99 -22 -42 -20 -91 5 -179 24 -80 20 -144 -15 -256
-47 -149 -47 -164 -5 -212 29 -33 127 -77 196 -89 13 -2 50 -8 83 -14 33 -6
83 -13 110 -17 111 -14 158 -28 530 -159 153 -54 290 -64 369 -26 41 20 95 72
121 114 10 16 142 43 310 63 164 19 454 9 610 -20 17 -4 46 -9 66 -12 31 -5
43 -15 75 -64 65 -100 147 -139 275 -135 89 4 163 37 244 110 95 85 230 173
470 305 213 117 264 155 289 214 33 80 -1 145 -107 201 -138 73 -176 125 -184
258 -5 88 -31 160 -76 213 l-26 31 14 69 c7 38 17 89 20 114 8 54 8 235 0 270
-3 14 -8 38 -11 54 -30 165 -210 480 -535 937 -207 291 -214 315 -234 774 -6
160 -18 236 -55 372 -91 333 -306 517 -616 528 -56 2 -104 2 -106 0z m297
-601 c131 -62 169 -290 69 -421 -35 -46 -57 -56 -89 -41 -20 9 -23 13 -12 20
59 33 73 167 25 230 -50 65 -127 59 -168 -15 -22 -37 -28 -105 -15 -146 6 -20
5 -20 -39 -4 -55 21 -68 47 -68 135 1 195 147 314 297 242z m-535 -70 c44 -51
62 -100 65 -182 3 -78 4 -77 -55 -115 l-35 -23 0 60 c0 96 -57 168 -119 152
-82 -20 -75 -213 9 -256 17 -8 32 -16 34 -18 6 -3 -41 -52 -50 -52 -19 0 -69
54 -90 97 -18 39 -23 65 -23 138 0 106 22 167 79 212 64 52 132 47 185 -13z
m356 -431 c153 -60 194 -87 194 -126 0 -19 -25 -37 -157 -115 -184 -106 -260
-143 -288 -137 -11 2 -25 4 -31 4 -17 1 -144 88 -182 124 -43 40 -65 82 -57
107 4 11 10 20 13 20 4 0 48 34 97 75 50 41 111 86 137 99 59 30 74 27 274
-51z m302 -260 c49 -70 218 -445 337 -748 143 -365 165 -458 160 -690 -1 -88
-6 -173 -9 -189 -4 -16 -10 -45 -14 -65 -8 -35 -9 -36 -57 -37 -78 -2 -82 -3
-109 -26 -30 -27 -32 -44 -42 -308 -6 -189 -5 -187 -71 -255 -105 -111 -235
-196 -367 -241 -38 -13 -88 -26 -110 -29 -23 -3 -59 -8 -81 -11 -22 -3 -112
-7 -200 -10 -162 -4 -227 4 -242 30 -5 8 -31 40 -60 72 -28 33 -63 72 -76 88
l-25 29 41 21 c56 29 80 64 80 119 0 75 -41 124 -217 262 -295 230 -327 276
-332 475 -5 165 31 308 121 473 24 45 72 162 106 258 69 195 102 267 153 335
75 98 135 265 132 367 0 31 -1 57 0 57 0 0 29 -27 65 -61 89 -84 166 -129 231
-136 48 -4 62 0 147 42 52 25 106 54 120 64 48 34 261 141 280 141 11 0 28
-12 39 -27z m-1555 -1799 c63 -31 150 -137 251 -305 126 -208 204 -328 231
-354 39 -39 97 -126 116 -175 38 -99 15 -177 -74 -255 -41 -36 -59 -45 -89
-45 -76 0 -213 41 -418 125 -110 45 -215 71 -402 100 -79 12 -170 39 -185 53
-20 20 -13 92 17 182 24 71 31 139 19 184 -5 16 -11 53 -14 83 -4 51 -3 57 24
82 26 25 63 37 161 56 122 23 165 57 224 173 38 75 61 100 104 111 2 1 17 -6
35 -15z m2045 -119 c3 -61 28 -143 50 -169 51 -56 164 -71 272 -36 89 30 142
70 187 140 21 33 41 60 45 60 19 0 41 -56 44 -113 6 -127 46 -203 134 -254
106 -60 135 -86 135 -118 0 -34 -32 -56 -245 -167 -201 -104 -234 -126 -338
-222 -110 -102 -215 -155 -284 -142 -50 9 -109 71 -129 133 -19 60 -17 130 10
258 48 235 51 277 41 569 -3 78 -1 90 16 103 10 7 28 12 39 11 17 -3 20 -12
23 -53z"/>
</g>
</svg>
